<?xml version="1.0" encoding="iso-8859-1"?>
<!-- Generator: Adobe Illustrator 16.0.0, SVG Export Plug-In . SVG Version: 6.00 Build 0)  -->
<!DOCTYPE svg PUBLIC "-//W3C//DTD SVG 1.1//EN" "http://www.w3.org/Graphics/SVG/1.1/DTD/svg11.dtd">
<svg version="1.1" id="Capa_1" xmlns="http://www.w3.org/2000/svg" xmlns:xlink="http://www.w3.org/1999/xlink" x="0px" y="0px"
	 width="576.3px" height="576.3px" viewBox="0 0 576.3 576.3" style="enable-background:new 0 0 576.3 576.3;" xml:space="preserve"
	>
<g>
	<g id="Layer_1_1_">
		<path d="M432.398,229.5l56.102-61.2c10.199-11.475,12.75-28.05,6.375-40.8c-6.375-14.025-20.4-22.95-35.701-22.95H177.399
			c12.75-10.2,20.4-26.775,20.4-44.625C197.799,26.775,171.024,0,137.874,0S77.949,26.775,77.949,59.925
			c0,19.125,8.925,35.7,21.675,45.9V538.05c0,20.4,16.575,38.25,36.975,38.25s38.25-16.575,38.25-38.25V355.725h284.325
			c15.301,0,29.326-8.925,35.701-22.949c6.375-14.025,3.824-30.601-6.375-40.801L432.398,229.5z M176.124,306V155.55h256.274
			l-44.625,49.725c-14.023,15.3-14.023,36.975,0,52.275l44.625,49.726H176.124V306z"/>
	</g>
</g>
<g>
</g>
<g>
</g>
<g>
</g>
<g>
</g>
<g>
</g>
<g>
</g>
<g>
</g>
<g>
</g>
<g>
</g>
<g>
</g>
<g>
</g>
<g>
</g>
<g>
</g>
<g>
</g>
<g>
</g>
</svg>
