<?xml version="1.0" encoding="iso-8859-1"?>
<!-- Generator: Adobe Illustrator 19.0.0, SVG Export Plug-In . SVG Version: 6.00 Build 0)  -->
<svg version="1.1" id="Layer_1" xmlns="http://www.w3.org/2000/svg" xmlns:xlink="http://www.w3.org/1999/xlink" x="0px" y="0px"
	 viewBox="0 0 384.154 384.154" style="enable-background:new 0 0 384.154 384.154;" xml:space="preserve">
<g id="XMLID_1242_">
	<g>
		<g>
			<path d="M348.186,259.285V26.887H35.968v232.399C15.209,265.366,0,284.568,0,307.267c0,27.57,22.43,50,50,50h284.154
				c27.57,0,50-22.43,50-50C384.154,284.567,368.945,265.366,348.186,259.285z M55.968,46.887h126.109v25.578h-8.664l-0.768,31.698
				l-34.104,22.839l22.054,31.177l16.328-11.551l-10.204-14.425l25.358-16.981l25.358,16.981l-10.205,14.425l16.328,11.551
				l22.055-31.177l-34.105-22.839l-0.768-31.698h-8.663V46.887h126.108v210.381H305.03v-37.864h-60v37.864h-22.953v-37.864h-60
				v37.864h-22.954v-37.864h-60v37.864H55.968V46.887z M285.03,239.403v17.864h-20v-17.864H285.03z M202.077,239.403v17.864h-20
				v-17.864H202.077z M119.124,239.403v17.864h-20v-17.864H119.124z M334.154,337.267H50c-16.542,0-30-13.458-30-30s13.458-30,30-30
				h284.154c16.542,0,30,13.458,30,30S350.696,337.267,334.154,337.267z"/>
			<rect x="53.827" y="297.267" width="35.333" height="20"/>
			<rect x="134.216" y="297.267" width="35.333" height="20"/>
			<rect x="214.604" y="297.267" width="35.334" height="20"/>
			<rect x="294.994" y="297.267" width="35.333" height="20"/>
		</g>
	</g>
</g>
<g>
</g>
<g>
</g>
<g>
</g>
<g>
</g>
<g>
</g>
<g>
</g>
<g>
</g>
<g>
</g>
<g>
</g>
<g>
</g>
<g>
</g>
<g>
</g>
<g>
</g>
<g>
</g>
<g>
</g>
</svg>
